<svg width="1024" height="1024" viewBox="0 0 1024 1024" fill="none" xmlns="http://www.w3.org/2000/svg">
<path d="M177.058 747.198V768.956H198.923V774.956H171.058V747.198H177.058ZM256.942 768.956V774.956H207.211V768.956H256.942ZM314.961 768.956V774.956H265.23V768.956H314.961ZM361.796 750.509L349.998 774.956H323.25V768.956H346.231L356.393 747.902L361.796 750.509ZM427.972 749.205V768.956H449.837V774.956H421.972V749.205H427.972ZM507.856 768.956V774.956H458.125V768.956H507.856ZM565.875 768.956V774.956H516.145V768.956H565.875ZM612.71 750.509L600.912 774.956H574.164V768.956H597.146L607.307 747.902L612.71 750.509ZM678.886 749.205V768.956H700.751V774.956H672.886V749.205H678.886ZM758.77 768.956V774.956H709.039V768.956H758.77ZM816.789 768.956V774.956H767.059V768.956H816.789ZM852.942 747.198V774.956H825.077V768.956H846.942V747.198H852.942ZM230.672 723.959L222.047 741.83H241.658V747.83H212.489L225.268 721.352L230.672 723.959ZM298.567 741.83V747.83H249.788V741.83H298.567ZM344.49 723.96L332.97 747.83H306.697V741.83H329.203L339.086 721.352L344.49 723.96ZM481.586 723.959L472.961 741.83H492.572V747.83H463.403L476.182 721.352L481.586 723.959ZM549.481 741.83V747.83H500.702V741.83H549.481ZM595.403 723.96L583.884 747.83H557.611V741.83H580.117L590 721.352L595.403 723.96ZM706.012 717.925V741.83H728.684V747.83H700.012V717.925H706.012ZM788.587 741.83V747.83H737.241V741.83H788.587ZM825.817 721.442V747.83H797.145V741.83H819.817V721.442H825.817ZM387.415 697.425L365.456 742.926L360.053 740.319L382.012 694.818L387.415 697.425ZM638.329 697.425L616.37 742.926L610.967 740.319L632.926 694.818L638.329 697.425ZM427.972 696.121V741.622H421.972V696.121H427.972ZM678.886 696.121V741.622H672.886V696.121H678.886ZM177.058 689.43V738.946H171.058V689.43H177.058ZM852.942 689.43V738.946H846.942V689.43H852.942ZM204.184 692.361V702.63L208.751 693.167L214.154 695.775L203.886 717.053L198.184 715.749V692.361H204.184ZM455.098 692.999V702.63L459.665 693.167L465.068 695.775L454.799 717.053L449.098 715.749V692.999H455.098ZM255.642 672.22L234.239 716.569L228.835 713.96L250.238 669.612L255.642 672.22ZM369.46 672.22L348.057 716.569L342.653 713.96L364.057 669.612L369.46 672.22ZM506.556 672.22L485.152 716.569L479.749 713.96L501.152 669.612L506.556 672.22ZM620.374 672.22L598.971 716.569L593.567 713.96L614.971 669.612L620.374 672.22ZM825.817 666.869V713.646H819.817V666.869H825.817ZM706.012 655.148V708.957H700.012V655.148H706.012ZM413.034 644.341L391.075 689.842L385.671 687.235L407.631 641.734L413.034 644.341ZM663.948 644.341L641.989 689.842L636.585 687.235L658.544 641.734L663.948 644.341ZM238.115 646.125L217.577 688.682L212.174 686.074L232.712 643.518L238.115 646.125ZM489.029 646.125L468.491 688.682L463.088 686.074L483.626 643.518L489.029 646.125ZM427.972 643.037V688.538H421.972V643.037H427.972ZM678.886 643.037V688.538H672.886V643.037H678.886ZM455.098 639.915V685.415H449.098V639.915H455.098ZM204.184 637.788V684.565H198.184V637.788H204.184ZM177.058 631.662V681.178H171.058V631.662H177.058ZM852.942 631.662V681.178H846.942V631.662H852.942ZM280.612 620.48L259.209 664.828L253.806 662.22L275.208 617.872L280.612 620.48ZM394.431 620.48L373.027 664.828L367.624 662.221L389.026 617.872L394.431 620.48ZM531.526 620.48L510.123 664.828L504.72 662.22L526.122 617.872L531.526 620.48ZM645.344 620.48L623.941 664.828L618.537 662.221L639.94 617.872L645.344 620.48ZM825.817 612.297V659.073H819.817V612.297H825.817ZM706.012 592.37V646.179H700.012V592.37H706.012ZM262.076 596.477L241.538 639.032L236.135 636.425L256.673 593.868L262.076 596.477ZM512.99 596.477L492.452 639.032L487.049 636.425L507.587 593.868L512.99 596.477ZM427.972 612.703V635.454H421.972V625.822L416.693 636.758L411.29 634.15L422.27 611.4L427.972 612.703ZM678.886 612.703V635.454H672.886V625.821L667.607 636.758L662.204 634.15L673.184 611.4L678.886 612.703ZM455.098 586.83V632.331H449.098V586.83H455.098ZM204.184 583.216V629.992H198.184V583.216H204.184ZM177.058 573.895V623.409H171.058V573.895H177.058ZM852.942 573.895V623.409H846.942V573.895H852.942ZM305.582 568.74L284.179 613.088L278.775 610.481L300.179 566.132L305.582 568.74ZM419.4 568.74L397.997 613.088L392.594 610.481L413.997 566.132L419.4 568.74ZM556.496 568.74L535.093 613.088L529.689 610.481L551.093 566.132L556.496 568.74ZM670.314 568.74L648.911 613.088L643.508 610.481L664.911 566.132L670.314 568.74ZM825.817 557.725V604.501H819.817V557.725H825.817ZM286.038 546.827L265.5 589.384L260.096 586.776L280.634 544.219L286.038 546.827ZM536.952 546.827L516.413 589.384L511.01 586.776L531.548 544.219L536.952 546.827ZM715.982 536.523L706.012 557.181V583.402H700.012V555.811L710.578 533.915L715.982 536.523ZM465.068 536.523L455.098 557.181V579.247H449.098V555.811L459.665 533.915L465.068 536.523ZM204.184 528.644V575.42H198.184V528.644H204.184ZM177.058 516.126V565.642H171.058V516.126H177.058ZM852.942 516.126V565.642H846.942V516.126H852.942ZM330.553 516.999L309.149 561.348L303.746 558.74L325.148 514.392L330.553 516.999ZM444.371 516.999L422.968 561.348L417.564 558.74L438.967 514.392L444.371 516.999ZM581.466 516.999L560.063 561.348L554.66 558.74L576.062 514.392L581.466 516.999ZM695.284 516.999L673.882 561.348L668.478 558.74L689.881 514.392L695.284 516.999ZM825.817 503.153V549.929H819.817V503.153H825.817ZM309.999 497.178L289.461 539.735L284.058 537.126L304.596 494.571L309.999 497.178ZM560.913 497.178L540.375 539.735L534.971 537.126L555.509 494.571L560.913 497.178ZM489.029 486.873L468.491 529.43L463.088 526.823L483.626 484.266L489.029 486.873ZM739.943 486.873L719.405 529.43L714.002 526.823L734.54 484.266L739.943 486.873ZM204.184 474.072V520.848H198.184V474.072H204.184ZM355.522 465.26L334.119 509.609L328.716 507L350.119 462.652L355.522 465.26ZM469.341 465.26L447.938 509.609L442.534 507L463.938 462.652L469.341 465.26ZM606.437 465.26L585.033 509.609L579.63 507L601.033 462.652L606.437 465.26ZM720.255 465.26L698.852 509.609L693.448 507L714.852 462.652L720.255 465.26ZM177.058 458.359V507.873H171.058V458.359H177.058ZM852.942 458.359V507.873H846.942V458.359H852.942ZM825.817 448.58V495.357H819.817V448.58H825.817ZM323.989 440.598V468.189L313.422 490.085L308.019 487.478L317.989 466.817V440.598H323.989ZM574.903 444.753V468.189L564.336 490.085L558.933 487.478L568.903 466.817V444.753H574.903ZM512.99 437.224L492.452 479.781L487.049 477.173L507.587 434.616L512.99 437.224ZM763.904 437.224L743.366 479.781L737.963 477.173L758.501 434.616L763.904 437.224ZM204.184 419.499V466.276H198.184V419.499H204.184ZM380.493 413.52L359.09 457.868L353.687 455.26L375.089 410.911L380.493 413.52ZM494.311 413.52L472.908 457.868L467.504 455.26L488.907 410.911L494.311 413.52ZM631.406 413.52L610.004 457.868L604.6 455.26L626.003 410.911L631.406 413.52ZM745.225 413.52L723.822 457.868L718.418 455.26L739.821 410.911L745.225 413.52ZM177.058 400.59V450.106H171.058V400.59H177.058ZM852.942 400.59V450.106H846.942V400.59H852.942ZM825.817 394.007V440.783H819.817V394.007H825.817ZM574.903 391.669V437.169H568.903V391.669H574.903ZM323.989 377.821V431.63H317.989V377.821H323.989ZM536.952 387.575L516.413 430.131L511.01 427.524L531.548 384.967L536.952 387.575ZM787.865 387.575L767.327 430.131L761.924 427.524L782.462 384.967L787.865 387.575ZM361.796 389.85L350.816 412.6L345.115 411.296V388.546H351.115V398.177L356.393 387.242L361.796 389.85ZM612.71 389.85L601.73 412.6L596.029 411.296V388.546H602.029V398.177L607.307 387.242L612.71 389.85ZM204.184 364.927V411.703H198.184V364.927H204.184ZM405.463 361.78L384.06 406.128L378.656 403.521L400.06 359.172L405.463 361.78ZM519.281 361.78L497.878 406.128L492.475 403.521L513.878 359.172L519.281 361.78ZM656.377 361.78L634.974 406.128L629.57 403.521L650.974 359.172L656.377 361.78ZM770.195 361.78L748.792 406.128L743.389 403.521L764.791 359.172L770.195 361.78ZM177.058 342.823V392.338H171.058V342.823H177.058ZM852.942 342.823V392.338H846.942V342.823H852.942ZM825.817 339.435V386.211H819.817V339.435H825.817ZM574.903 338.584V384.085H568.903V338.584H574.903ZM387.415 336.766L365.456 382.267L360.053 379.658L382.012 334.158L387.415 336.766ZM638.329 336.766L616.37 382.267L610.967 379.658L632.926 334.158L638.329 336.766ZM351.115 335.462V380.963H345.115V335.462H351.115ZM602.029 335.462V380.963H596.029V335.462H602.029ZM560.913 337.926L540.375 380.483L534.971 377.874L555.509 335.318L560.913 337.926ZM811.827 337.926L791.289 380.483L785.885 377.874L806.423 335.318L811.827 337.926ZM323.989 315.043V368.853H317.989V315.043H323.989ZM204.184 310.354V357.13H198.184V310.354H204.184ZM430.434 310.039L409.03 354.388L403.627 351.781L425.029 307.432L430.434 310.039ZM544.251 310.039L522.849 354.388L517.444 351.781L538.848 307.432L544.251 310.039ZM681.347 310.039L659.944 354.388L654.54 351.781L675.943 307.432L681.347 310.039ZM795.165 310.039L773.763 354.388L768.358 351.781L789.762 307.432L795.165 310.039ZM177.058 285.054V334.57H171.058V285.054H177.058ZM852.942 285.055V334.57H846.942V285.055H852.942ZM825.817 308.251V331.639H819.817V321.368L815.25 330.833L809.846 328.225L820.115 306.947L825.817 308.251ZM574.903 308.251V331.001H568.903V321.368L564.336 330.833L558.933 328.225L569.201 306.947L574.903 308.251ZM413.034 283.682L391.075 329.183L385.671 326.574L407.631 281.074L413.034 283.682ZM663.948 283.682L641.989 329.183L636.585 326.574L658.544 281.074L663.948 283.682ZM351.115 282.378V327.878H345.115V282.378H351.115ZM602.029 282.378V327.878H596.029V282.378H602.029ZM323.989 276.17V306.074H317.989V282.17H295.316V276.17H323.989ZM560.597 276.17L547.818 302.649L542.415 300.04L551.039 282.17H531.429V276.17H560.597ZM811.511 276.17L798.732 302.649L793.329 300.04L801.953 282.17H782.343V276.17H811.511ZM466.39 276.17V282.17H443.884L434 302.648L428.597 300.04L440.116 276.17H466.39ZM717.304 276.17V282.17H694.797L684.914 302.648L679.511 300.04L691.03 276.17H717.304ZM226.856 276.17V282.17H204.184V302.558H198.184V276.17H226.856ZM286.759 276.17V282.17H235.414V276.17H286.759ZM523.299 276.17V282.17H474.52V276.17H523.299ZM774.213 276.17V282.17H725.434V276.17H774.213ZM198.923 249.044V255.044H177.058V276.802H171.058V249.044H198.923ZM852.942 249.044V276.802H846.942V255.044H825.077V249.044H852.942ZM449.837 249.044V255.044H426.855L416.694 276.099L411.29 273.49L423.088 249.044H449.837ZM700.751 249.044V255.044H677.769L667.607 276.099L662.204 273.49L674.002 249.044H700.751ZM351.115 249.044V274.794H345.115V255.044H323.25V249.044H351.115ZM602.029 249.044V274.794H596.029V255.044H574.164V249.044H602.029ZM256.942 249.044V255.044H207.211V249.044H256.942ZM314.961 249.044V255.044H265.23V249.044H314.961ZM507.856 249.044V255.044H458.125V249.044H507.856ZM565.875 249.044V255.044H516.145V249.044H565.875ZM758.77 249.044V255.044H709.039V249.044H758.77ZM816.789 249.044V255.044H767.059V249.044H816.789Z" fill="white"/>
</svg>
